<?xml version="1.0" encoding="UTF-8" standalone="no"?>
<!DOCTYPE svg PUBLIC "-//W3C//DTD SVG 1.1//EN"
 "http://www.w3.org/Graphics/SVG/1.1/DTD/svg11.dtd">
<!-- Generated by graphviz version 2.38.0 (20140413.2041)
 -->
<!-- Title: structs Pages: 1 -->
<svg width="505pt" height="573pt"
 viewBox="0.00 0.00 505.00 573.00" xmlns="http://www.w3.org/2000/svg" xmlns:xlink="http://www.w3.org/1999/xlink">
<g id="graph0" class="graph" transform="scale(1 1) rotate(0) translate(4 569)">
<title>structs</title>
<polygon fill="white" stroke="none" points="-4,4 -4,-569 501,-569 501,4 -4,4"/>
<!-- 1 -->
<g id="node1" class="node"><title>1</title>
<polygon fill="none" stroke="black" points="295.5,-528.5 295.5,-564.5 418.5,-564.5 418.5,-528.5 295.5,-528.5"/>
<text text-anchor="middle" x="357" y="-542.8" font-family="Times New Roman,serif" font-size="14.00">null,startExecution,</text>
</g>
<!-- 5 -->
<g id="node2" class="node"><title>5</title>
<polygon fill="none" stroke="black" points="253.5,-440.5 253.5,-476.5 460.5,-476.5 460.5,-440.5 253.5,-440.5"/>
<text text-anchor="middle" x="357" y="-454.8" font-family="Times New Roman,serif" font-size="14.00">sensor_temperature,microService,</text>
</g>
<!-- 1&#45;&gt;5 -->
<g id="edge2" class="edge"><title>1&#45;&gt;5</title>
<path fill="none" stroke="red" d="M357,-528.097C357,-516.246 357,-500.317 357,-486.792"/>
<polygon fill="red" stroke="red" points="360.5,-486.584 357,-476.584 353.5,-486.584 360.5,-486.584"/>
<text text-anchor="middle" x="369" y="-498.8" font-family="Times New Roman,serif" font-size="14.00">null,</text>
</g>
<!-- 10 -->
<g id="node3" class="node"><title>10</title>
<polygon fill="none" stroke="black" points="241.5,-352.5 241.5,-388.5 336.5,-388.5 336.5,-352.5 241.5,-352.5"/>
<text text-anchor="middle" x="289" y="-366.8" font-family="Times New Roman,serif" font-size="14.00">9,startParallel,</text>
</g>
<!-- 5&#45;&gt;10 -->
<g id="edge8" class="edge"><title>5&#45;&gt;10</title>
<path fill="none" stroke="red" d="M343.239,-440.097C333.405,-427.659 320.019,-410.73 309.006,-396.802"/>
<polygon fill="red" stroke="red" points="311.456,-394.257 302.508,-388.584 305.965,-398.599 311.456,-394.257"/>
<text text-anchor="middle" x="333.5" y="-410.8" font-family="Times New Roman,serif" font-size="14.00">2,</text>
</g>
<!-- 2 -->
<g id="node8" class="node"><title>2</title>
<polygon fill="none" stroke="black" points="304,-0.5 304,-36.5 472,-36.5 472,-0.5 304,-0.5"/>
<text text-anchor="middle" x="388" y="-14.8" font-family="Times New Roman,serif" font-size="14.00">null,SuccessEndExecution,</text>
</g>
<!-- 5&#45;&gt;2 -->
<g id="edge4" class="edge"><title>5&#45;&gt;2</title>
<path fill="none" stroke="black" d="M367.151,-440.365C376.191,-423.458 388,-396.576 388,-371.5 388,-371.5 388,-371.5 388,-105.5 388,-85.9036 388,-63.7956 388,-46.9023"/>
<polygon fill="black" stroke="black" points="391.5,-46.6328 388,-36.6328 384.5,-46.6328 391.5,-46.6328"/>
<text text-anchor="middle" x="442.5" y="-234.8" font-family="Times New Roman,serif" font-size="14.00">1,|temperature:temp</text>
</g>
<!-- 7 -->
<g id="node4" class="node"><title>7</title>
<polygon fill="none" stroke="black" points="218.5,-264.5 218.5,-300.5 359.5,-300.5 359.5,-264.5 218.5,-264.5"/>
<text text-anchor="middle" x="289" y="-278.8" font-family="Times New Roman,serif" font-size="14.00">getGPS,microService,</text>
</g>
<!-- 10&#45;&gt;7 -->
<g id="edge6" class="edge"><title>10&#45;&gt;7</title>
<path fill="none" stroke="red" d="M289,-352.097C289,-340.246 289,-324.317 289,-310.792"/>
<polygon fill="red" stroke="red" points="292.5,-310.584 289,-300.584 285.5,-310.584 292.5,-310.584"/>
<text text-anchor="middle" x="301" y="-322.8" font-family="Times New Roman,serif" font-size="14.00">null,</text>
</g>
<!-- 8 -->
<g id="node5" class="node"><title>8</title>
<polygon fill="none" stroke="black" points="0,-264.5 0,-300.5 200,-300.5 200,-264.5 0,-264.5"/>
<text text-anchor="middle" x="100" y="-278.8" font-family="Times New Roman,serif" font-size="14.00">getCellIDLocation,microService,</text>
</g>
<!-- 10&#45;&gt;8 -->
<g id="edge1" class="edge"><title>10&#45;&gt;8</title>
<path fill="none" stroke="red" d="M251.207,-352.303C221.107,-338.607 178.826,-319.368 146.625,-304.716"/>
<polygon fill="red" stroke="red" points="147.956,-301.476 137.405,-300.52 145.057,-307.848 147.956,-301.476"/>
<text text-anchor="middle" x="218" y="-322.8" font-family="Times New Roman,serif" font-size="14.00">null,</text>
</g>
<!-- 9 -->
<g id="node6" class="node"><title>9</title>
<polygon fill="none" stroke="black" points="131.5,-176.5 131.5,-212.5 296.5,-212.5 296.5,-176.5 131.5,-176.5"/>
<text text-anchor="middle" x="183.5" y="-190.8" font-family="Times New Roman,serif" font-size="14.00">null,endParallel,</text>
<polyline fill="none" stroke="black" points="235.5,-176.5 235.5,-212.5 "/>
<text text-anchor="middle" x="266" y="-190.8" font-family="Times New Roman,serif" font-size="14.00">location</text>
</g>
<!-- 7&#45;&gt;9 -->
<g id="edge10" class="edge"><title>7&#45;&gt;9</title>
<path fill="none" stroke="black" d="M273.823,-264.097C262.874,-251.542 247.933,-234.41 235.722,-220.408"/>
<polygon fill="black" stroke="black" points="238.109,-217.82 228.899,-212.584 232.834,-222.421 238.109,-217.82"/>
<text text-anchor="middle" x="300" y="-234.8" font-family="Times New Roman,serif" font-size="14.00">1,|GPS:location</text>
</g>
<!-- 8&#45;&gt;9 -->
<g id="edge5" class="edge"><title>8&#45;&gt;9</title>
<path fill="none" stroke="red" d="M108.412,-264.225C114.342,-253.511 123.149,-240.102 134,-231 140.139,-225.851 147.144,-221.316 154.397,-217.362"/>
<polygon fill="red" stroke="red" points="156.333,-220.304 163.67,-212.661 153.168,-214.061 156.333,-220.304"/>
<text text-anchor="middle" x="189" y="-234.8" font-family="Times New Roman,serif" font-size="14.00">1,|Location:location</text>
</g>
<!-- 6 -->
<g id="node7" class="node"><title>6</title>
<polygon fill="none" stroke="black" points="76,-88.5 76,-124.5 352,-124.5 352,-88.5 76,-88.5"/>
<text text-anchor="middle" x="183.5" y="-102.8" font-family="Times New Roman,serif" font-size="14.00">location_temperature,microService,</text>
<polyline fill="none" stroke="black" points="291,-88.5 291,-124.5 "/>
<text text-anchor="middle" x="321.5" y="-102.8" font-family="Times New Roman,serif" font-size="14.00">location</text>
</g>
<!-- 9&#45;&gt;6 -->
<g id="edge3" class="edge"><title>9&#45;&gt;6</title>
<path fill="none" stroke="red" d="M214,-176.097C214,-164.246 214,-148.317 214,-134.792"/>
<polygon fill="red" stroke="red" points="217.5,-134.584 214,-124.584 210.5,-134.584 217.5,-134.584"/>
<text text-anchor="middle" x="226" y="-146.8" font-family="Times New Roman,serif" font-size="14.00">null,</text>
</g>
<!-- 6&#45;&gt;2 -->
<g id="edge7" class="edge"><title>6&#45;&gt;2</title>
<path fill="none" stroke="red" d="M227.479,-88.2682C236.905,-77.2939 250.385,-63.5775 265,-55 275.108,-49.0675 286.271,-44.0727 297.626,-39.8811"/>
<polygon fill="red" stroke="red" points="298.9,-43.1436 307.19,-36.546 296.595,-36.534 298.9,-43.1436"/>
<text text-anchor="middle" x="319.5" y="-58.8" font-family="Times New Roman,serif" font-size="14.00">1,|temperature:temp</text>
</g>
<!-- 3 -->
<g id="node9" class="node"><title>3</title>
<polygon fill="none" stroke="black" points="126.5,-0.5 126.5,-36.5 285.5,-36.5 285.5,-0.5 126.5,-0.5"/>
<text text-anchor="middle" x="206" y="-14.8" font-family="Times New Roman,serif" font-size="14.00">null,FailureEndExecution,</text>
</g>
<!-- 6&#45;&gt;3 -->
<g id="edge9" class="edge"><title>6&#45;&gt;3</title>
<path fill="none" stroke="black" d="M212.381,-88.0966C211.279,-76.2459 209.797,-60.3169 208.539,-46.7917"/>
<polygon fill="black" stroke="black" points="212,-46.2168 207.589,-36.584 205.031,-46.8652 212,-46.2168"/>
<text text-anchor="middle" x="216.5" y="-58.8" font-family="Times New Roman,serif" font-size="14.00">2,</text>
</g>
</g>
</svg>
